# xmcd
#
# Track frame offsets:
#	150
#	16194
#	32760
#	48130
#	58250
#	70991
#	87019
#	105571
#	121614
#	133663
#	146449
#	162643
#	175533
#	189534
#	202796
#	215989
#
# Disc length: 3065 seconds
#
# Revision: 1
# Processed by: cddbd v1.5.2PL0 Copyright (c) Steve Scherf et al.
# Submitted via: audiograbber 1.83.01
#
DISCID=da0bf710
DTITLE=Shannah - Don´t Move
DYEAR=2006
DGENRE=Country/Rock
TTITLE0=Big River
TTITLE1=Adios Sayonora Goodbye
TTITLE2=A Guy Like That
TTITLE3=Midnight With Elvis
TTITLE4=Bad News Is Good
TTITLE5=Don´t Move
TTITLE6=My Truck
TTITLE7=Mi Destino
TTITLE8=Victum Of Circumstance
TTITLE9=Upsy Daisy
TTITLE10=At My Place
TTITLE11=Haystack Life
TTITLE12=How Can We Go On
TTITLE13=Fire Down In Texas
TTITLE14=Don´t Fence Me In
TTITLE15=Guilty
EXTD=
EXTT0=
EXTT1=
EXTT2=
EXTT3=
EXTT4=
EXTT5=
EXTT6=
EXTT7=
EXTT8=
EXTT9=
EXTT10=
EXTT11=
EXTT12=
EXTT13=
EXTT14=
EXTT15=
PLAYORDER=
